<mxfile host="app.diagrams.net" modified="2023-11-07T06:35:37.761Z" agent="Mozilla/5.0 (X11; Linux x86_64) AppleWebKit/537.36 (KHTML, like Gecko) Chrome/118.0.0.0 Safari/537.36" etag="51qXC9DlpV50uASqmG_O" version="22.0.8" type="github">
  <diagram name="Page-1" id="Nkr8TpWQaP8W8WFVbnt2">
    <mxGraphModel dx="1241" dy="1209" grid="1" gridSize="10" guides="1" tooltips="1" connect="1" arrows="1" fold="1" page="1" pageScale="1" pageWidth="850" pageHeight="1100" math="0" shadow="0">
      <root>
        <mxCell id="0" />
        <mxCell id="1" parent="0" />
        <mxCell id="0EUqBzSwD5kJ1E8rfx9E-1" value="" style="rounded=0;whiteSpace=wrap;html=1;" parent="1" vertex="1">
          <mxGeometry x="90" y="190" width="710" height="610" as="geometry" />
        </mxCell>
        <mxCell id="0EUqBzSwD5kJ1E8rfx9E-2" value="" style="rounded=0;whiteSpace=wrap;html=1;" parent="1" vertex="1">
          <mxGeometry x="300" y="220" width="430" height="360" as="geometry" />
        </mxCell>
        <mxCell id="0EUqBzSwD5kJ1E8rfx9E-3" value="&lt;font style=&quot;font-size: 18px;&quot;&gt;Host vCPU&lt;/font&gt;" style="rounded=0;whiteSpace=wrap;html=1;" parent="1" vertex="1">
          <mxGeometry x="430" y="660" width="240" height="100" as="geometry" />
        </mxCell>
        <mxCell id="0EUqBzSwD5kJ1E8rfx9E-4" value="&lt;font style=&quot;font-size: 36px;&quot;&gt;Real CPU&lt;/font&gt;" style="rounded=0;whiteSpace=wrap;html=1;" parent="1" vertex="1">
          <mxGeometry x="395" y="910" width="310" height="140" as="geometry" />
        </mxCell>
        <mxCell id="0EUqBzSwD5kJ1E8rfx9E-5" value="&lt;font style=&quot;font-size: 24px;&quot;&gt;QEMU&lt;/font&gt;" style="text;html=1;strokeColor=none;fillColor=none;align=center;verticalAlign=middle;whiteSpace=wrap;rounded=0;" parent="1" vertex="1">
          <mxGeometry x="300" y="240" width="100" height="40" as="geometry" />
        </mxCell>
        <mxCell id="0EUqBzSwD5kJ1E8rfx9E-6" value="" style="endArrow=classic;html=1;rounded=0;exitX=0.5;exitY=0;exitDx=0;exitDy=0;entryX=0.5;entryY=1;entryDx=0;entryDy=0;" parent="1" source="0EUqBzSwD5kJ1E8rfx9E-4" target="0EUqBzSwD5kJ1E8rfx9E-3" edge="1">
          <mxGeometry width="50" height="50" relative="1" as="geometry">
            <mxPoint x="400" y="620" as="sourcePoint" />
            <mxPoint x="450" y="570" as="targetPoint" />
          </mxGeometry>
        </mxCell>
        <mxCell id="0EUqBzSwD5kJ1E8rfx9E-7" value="&lt;font style=&quot;font-size: 24px;&quot;&gt;Import CPU information&lt;/font&gt;" style="text;html=1;strokeColor=none;fillColor=none;align=center;verticalAlign=middle;whiteSpace=wrap;rounded=0;" parent="1" vertex="1">
          <mxGeometry x="550" y="830" width="180" height="30" as="geometry" />
        </mxCell>
        <mxCell id="0EUqBzSwD5kJ1E8rfx9E-8" value="&lt;font style=&quot;font-size: 36px;&quot;&gt;VM&lt;/font&gt;" style="whiteSpace=wrap;html=1;aspect=fixed;" parent="1" vertex="1">
          <mxGeometry x="425" y="240" width="245" height="245" as="geometry" />
        </mxCell>
        <mxCell id="0EUqBzSwD5kJ1E8rfx9E-9" value="" style="endArrow=classic;startArrow=classic;html=1;rounded=0;exitX=0.404;exitY=-0.048;exitDx=0;exitDy=0;entryX=0.5;entryY=1;entryDx=0;entryDy=0;exitPerimeter=0;" parent="1" source="0EUqBzSwD5kJ1E8rfx9E-3" target="0EUqBzSwD5kJ1E8rfx9E-18" edge="1">
          <mxGeometry width="50" height="50" relative="1" as="geometry">
            <mxPoint x="502" y="660" as="sourcePoint" />
            <mxPoint x="500" y="570" as="targetPoint" />
            <Array as="points" />
          </mxGeometry>
        </mxCell>
        <mxCell id="0EUqBzSwD5kJ1E8rfx9E-10" value="&lt;font style=&quot;font-size: 24px;&quot;&gt;CPU feature detection&lt;/font&gt;" style="text;html=1;strokeColor=none;fillColor=none;align=center;verticalAlign=middle;whiteSpace=wrap;rounded=0;" parent="1" vertex="1">
          <mxGeometry x="600" y="530" width="360" height="30" as="geometry" />
        </mxCell>
        <mxCell id="0EUqBzSwD5kJ1E8rfx9E-12" value="&lt;font style=&quot;font-size: 18px;&quot;&gt;Guest Kernel&lt;/font&gt;" style="rounded=0;whiteSpace=wrap;html=1;" parent="1" vertex="1">
          <mxGeometry x="425" y="405" width="245" height="80" as="geometry" />
        </mxCell>
        <mxCell id="0EUqBzSwD5kJ1E8rfx9E-14" value="" style="endArrow=none;dashed=1;html=1;dashPattern=1 3;strokeWidth=2;rounded=0;exitX=0;exitY=0.75;exitDx=0;exitDy=0;entryX=1;entryY=0.75;entryDx=0;entryDy=0;" parent="1" edge="1">
          <mxGeometry width="50" height="50" relative="1" as="geometry">
            <mxPoint x="110" y="637.5" as="sourcePoint" />
            <mxPoint x="820" y="637.5" as="targetPoint" />
          </mxGeometry>
        </mxCell>
        <mxCell id="0EUqBzSwD5kJ1E8rfx9E-15" value="&lt;font style=&quot;font-size: 18px;&quot;&gt;Host Kernel&lt;/font&gt;" style="text;html=1;strokeColor=none;fillColor=none;align=center;verticalAlign=middle;whiteSpace=wrap;rounded=0;" parent="1" vertex="1">
          <mxGeometry x="90" y="650" width="150" height="30" as="geometry" />
        </mxCell>
        <mxCell id="0EUqBzSwD5kJ1E8rfx9E-18" value="&lt;font style=&quot;font-size: 18px;&quot;&gt;QEMU vCPU&lt;/font&gt;" style="rounded=0;whiteSpace=wrap;html=1;" parent="1" vertex="1">
          <mxGeometry x="440" y="510" width="170" height="40" as="geometry" />
        </mxCell>
        <mxCell id="5I5sJfOspBYhfu1HQpZr-1" value="" style="endArrow=classic;startArrow=classic;html=1;rounded=0;exitX=0.672;exitY=0.01;exitDx=0;exitDy=0;exitPerimeter=0;strokeColor=#ff0000;" edge="1" parent="1" source="0EUqBzSwD5kJ1E8rfx9E-18">
          <mxGeometry width="50" height="50" relative="1" as="geometry">
            <mxPoint x="610" y="630" as="sourcePoint" />
            <mxPoint x="554" y="490" as="targetPoint" />
          </mxGeometry>
        </mxCell>
        <mxCell id="5I5sJfOspBYhfu1HQpZr-2" value="" style="endArrow=classic;startArrow=classic;html=1;rounded=0;exitX=0.672;exitY=0.01;exitDx=0;exitDy=0;exitPerimeter=0;strokeColor=#ff0000;entryX=0.831;entryY=1.008;entryDx=0;entryDy=0;entryPerimeter=0;" edge="1" parent="1" target="0EUqBzSwD5kJ1E8rfx9E-12">
          <mxGeometry width="50" height="50" relative="1" as="geometry">
            <mxPoint x="630" y="660" as="sourcePoint" />
            <mxPoint x="598.3333333333333" y="570" as="targetPoint" />
          </mxGeometry>
        </mxCell>
      </root>
    </mxGraphModel>
  </diagram>
</mxfile>
